<?xml version="1.0" standalone="no"?>
<!DOCTYPE svg PUBLIC "-//W3C//DTD SVG 20010904//EN"
 "http://www.w3.org/TR/2001/REC-SVG-20010904/DTD/svg10.dtd">
<svg version="1.0" xmlns="http://www.w3.org/2000/svg"
 width="2400.000000pt" height="2400.000000pt" viewBox="0 0 2400.000000 2400.000000"
 preserveAspectRatio="xMidYMid meet">
<metadata>
Created by potrace 1.14, written by Peter Selinger 2001-2017
</metadata>
<g transform="translate(0.000000,2400.000000) scale(0.100000,-0.100000)"
fill="#000000" stroke="none">
<path d="M0 12000 l0 -12000 12000 0 12000 0 0 12000 0 12000 -12000 0 -12000
0 0 -12000z m16879 9965 c424 -60 757 -219 1053 -504 524 -502 831 -1339 908
-2476 14 -204 14 -800 0 -1015 -44 -685 -137 -1323 -296 -2019 -24 -106 -44
-199 -44 -205 0 -6 46 -24 103 -40 185 -52 778 -252 1012 -341 1213 -462 2164
-1035 2800 -1686 675 -691 922 -1409 735 -2136 -235 -908 -1182 -1821 -2635
-2537 -540 -267 -1138 -503 -1770 -701 -99 -30 -185 -57 -191 -60 -8 -2 -3
-40 17 -122 105 -428 199 -954 253 -1413 53 -454 61 -590 61 -1135 0 -547 -7
-657 -61 -1033 -151 -1058 -551 -1831 -1149 -2225 -804 -529 -2029 -380 -3420
416 -718 411 -1387 922 -2176 1664 l-55 53 -140 -131 c-1285 -1208 -2673
-2021 -3830 -2243 -243 -47 -373 -59 -624 -60 -268 0 -391 14 -607 69 -379 97
-691 291 -950 590 -436 503 -684 1230 -765 2235 -16 200 -16 856 0 1075 50
689 163 1402 327 2073 22 91 29 135 21 137 -6 2 -96 29 -201 61 -1531 458
-2894 1207 -3671 2017 -1014 1056 -1102 2128 -261 3174 546 678 1514 1323
2732 1818 377 154 734 279 1155 406 146 44 266 82 267 83 2 2 -15 77 -37 167
-156 645 -259 1280 -317 1959 -22 260 -25 1045 -5 1270 63 698 194 1217 418
1661 309 611 764 980 1360 1104 181 37 295 48 504 48 291 -1 519 -32 845 -115
1093 -278 2389 -1074 3617 -2221 l128 -119 49 43 c27 24 111 101 186 172 241
226 537 480 795 683 279 219 458 349 715 521 347 231 620 388 977 563 606 295
1157 457 1678 494 100 7 383 -4 489 -19z"/>
<path d="M16420 21030 c-952 -67 -2263 -812 -3578 -2032 l-183 -170 38 -41
c617 -677 1199 -1398 1728 -2142 70 -99 131 -183 134 -187 3 -3 123 -18 266
-33 827 -84 1713 -223 2465 -387 129 -28 246 -52 260 -52 23 -1 26 5 47 94
148 610 256 1336 294 1965 17 281 6 869 -20 1111 -102 938 -388 1560 -816
1776 -156 79 -390 115 -635 98z"/>
<path d="M7147 20995 c-229 -40 -389 -124 -536 -281 -480 -514 -667 -1689
-501 -3149 46 -398 135 -904 240 -1354 27 -117 51 -216 54 -218 2 -2 111 18
243 46 842 177 1627 298 2493 387 239 24 266 29 280 47 440 605 554 755 875
1157 304 379 641 773 908 1063 65 70 117 131 115 135 -5 13 -264 252 -413 382
-1128 983 -2233 1606 -3141 1771 -152 27 -497 36 -617 14z"/>
<path d="M11803 17938 c-224 -251 -399 -455 -621 -725 -202 -245 -522 -654
-522 -667 0 -5 41 -6 93 -2 422 28 1744 32 2321 6 131 -6 240 -9 242 -7 9 9
-494 646 -755 957 -245 291 -556 640 -570 640 -3 0 -88 -91 -188 -202z"/>
<path d="M11250 15609 c-413 -11 -1157 -49 -1278 -65 l-44 -6 -212 -321 c-525
-794 -983 -1572 -1431 -2427 -153 -292 -395 -780 -395 -797 0 -18 318 -652
473 -944 451 -849 965 -1703 1487 -2474 l95 -140 200 -12 c1254 -72 2638 -67
3804 14 l94 6 132 201 c628 957 1238 2013 1746 3026 l168 335 -168 330 c-522
1023 -1106 2027 -1733 2977 l-150 226 -46 6 c-61 8 -477 33 -757 46 -611 29
-1360 36 -1985 19z m900 -1599 c376 -34 732 -169 1035 -394 111 -83 337 -313
414 -421 185 -263 295 -520 354 -825 30 -157 32 -540 3 -695 -128 -699 -596
-1270 -1251 -1528 -425 -167 -908 -178 -1353 -31 -1045 343 -1616 1475 -1272
2524 287 877 1154 1451 2070 1370z"/>
<path d="M8650 15413 c-14 -2 -155 -22 -315 -44 -340 -47 -834 -129 -1165
-194 -241 -47 -502 -104 -507 -109 -6 -6 223 -686 317 -941 126 -343 389
-1005 400 -1005 3 0 32 53 65 117 295 577 845 1527 1229 2126 39 60 39 60 -24
50z"/>
<path d="M15260 15414 c0 -3 67 -112 148 -242 362 -577 903 -1516 1135 -1969
23 -46 45 -83 48 -83 12 0 251 589 384 945 160 428 344 979 332 991 -3 4 -98
26 -209 51 -458 99 -993 193 -1488 263 -157 22 -300 42 -317 44 -18 3 -33 2
-33 0z"/>
<path d="M5525 14774 c-1421 -430 -2534 -1004 -3208 -1653 -449 -432 -660
-857 -608 -1222 50 -346 300 -733 731 -1131 531 -490 1357 -967 2310 -1334
360 -138 956 -332 971 -316 4 4 14 32 24 62 245 793 631 1803 999 2615 47 104
86 193 86 197 0 3 -36 87 -81 185 -269 593 -546 1284 -766 1908 -73 209 -243
725 -243 740 0 11 -42 1 -215 -51z"/>
<path d="M18235 14808 c-2 -7 -32 -99 -65 -205 -215 -678 -555 -1552 -911
-2339 -60 -133 -109 -248 -109 -256 0 -9 32 -82 71 -164 350 -736 761 -1760
1005 -2507 53 -162 59 -177 78 -171 12 3 93 28 181 56 1681 527 2997 1319
3540 2128 64 95 154 274 184 365 82 251 64 474 -59 733 -316 662 -1263 1365
-2572 1907 -401 167 -736 284 -1321 461 -9 3 -19 -1 -22 -8z"/>
<path d="M16577 10858 c-13 -24 -71 -131 -127 -238 -300 -567 -726 -1306
-1101 -1906 -50 -80 -89 -147 -87 -150 10 -10 622 76 1039 146 394 66 1034
194 1052 209 15 15 -237 729 -428 1211 -97 246 -311 758 -320 768 -2 2 -14
-16 -28 -40z"/>
<path d="M7271 10610 c-125 -306 -253 -643 -359 -940 -78 -220 -245 -719 -257
-771 l-6 -25 288 -57 c495 -98 942 -170 1478 -237 170 -22 310 -38 311 -37 1
1 -61 101 -137 222 -366 578 -786 1304 -1109 1918 -52 97 -97 177 -100 177 -4
0 -53 -112 -109 -250z"/>
<path d="M17495 7974 c-554 -132 -1473 -285 -2245 -374 -130 -15 -662 -70
-675 -70 -1 0 -22 -28 -45 -62 -545 -785 -1153 -1562 -1704 -2178 l-138 -155
113 -109 c326 -312 756 -674 1116 -937 887 -650 1712 -1034 2406 -1120 157
-19 429 -7 548 24 221 58 375 160 530 355 237 296 418 815 493 1412 32 252 37
342 43 685 11 650 -44 1228 -183 1950 -69 360 -126 599 -144 601 -8 1 -60 -9
-115 -22z"/>
<path d="M6380 7921 c-5 -20 -22 -94 -39 -166 -336 -1441 -388 -2721 -150
-3623 119 -449 315 -797 548 -974 285 -216 738 -253 1316 -107 933 235 2057
923 3123 1911 94 88 172 163 172 167 0 4 -59 73 -132 152 -558 612 -1119 1304
-1672 2066 -65 90 -121 165 -125 167 -3 3 -132 16 -286 31 -895 83 -1668 194
-2434 349 l-311 62 -10 -35z"/>
<path d="M13080 7439 c-362 -16 -1402 -22 -1898 -10 -277 7 -506 10 -509 8
-14 -15 605 -785 921 -1147 210 -241 420 -470 428 -468 22 8 507 574 734 858
215 268 584 751 584 764 0 7 -28 6 -260 -5z"/>
</g>
</svg>
